<svg id="Capa_1" enable-background="new 0 0 512 512" viewBox="0 0 512 512" xmlns="http://www.w3.org/2000/svg"><g><g><g><path d="m417.334 197.195-4.728.944c-44.673 9.105-35.638 45.055-6.023 38.861 17.499-3.325 19.496-4.325 25.097-4.373 11.712-4.241 36.642-24.151 9.7-36.222-7.76-1.044-15.852-.849-24.046.79z" fill="#fcc882"/><path d="m431.68 304.423-25.097 8.37c-34.383 7.574-48.312 48.483-7.077 41.521l28.843-8.652c29.265-10.027 28.261-44.494 3.331-41.239z" fill="#fcc882"/><path d="m441.38 196.405c-6.35 10.218-9.7 21.936-9.7 34.029v2.193c18.929-.16 35.136 15.154 35.136 34.911 0 15.041-9.631 28.395-23.873 33.129l-11.264 3.757v11.884c0 10.091-1.153 19.917-3.332 29.356l24.203-7.26c30.825-9.257 51.911-37.632 51.911-69.771.001-37.613-28.154-67.53-63.081-72.228z" fill="#fcddb4"/><path d="m406.583 316.307c0-28.599 0-57.277 0-85.873 0-18.207 5.54-35.468 15.058-49.733 0-19.738-61.86-31.13-132.116-33.942-126.387 9.848-138.976 266.169-.132 280.551 6.264-2.833 10.465-5.359 11.86-5.674 58.28 0 105.33-47.277 105.33-105.329z" fill="#fcddb4"/><path d="m248.118 269.064c3.766-47.862 19.138-90.609 41.408-122.305-4.054-.162-8.134-.298-12.234-.403-89.273-2.287-186.936 8.999-186.936 34.344 9.818 14.727 15.058 32.034 15.058 49.733v85.873c0 58.176 47.153 105.329 105.329 105.329 31.592 22.647 62.226 13.103 78.651 5.674-29.616-36.668-46.284-94.6-41.276-158.245z" fill="#fcc882"/><path d="m451.749 151.302c.396-17.004-13.296-30.835-30.108-30.835-33.102 0-193.514 0-280.338 0-50.948 0-58.979 13.482-58.979 30.117 0 16.624 15.058 30.117 58.979 30.117h279.728c16.457 0 30.335-12.947 30.718-29.399z" fill="#fbf0e1"/><path d="m111.187 150.584c0-16.635 13.482-30.117 30.117-30.117-24.054 0-42.463 0-50.948 0-16.635 0-30.117 13.482-30.117 30.117 0 16.624 13.492 30.117 30.117 30.117h50.948c-16.626 0-30.117-13.493-30.117-30.117z" fill="#fcddb4"/><path d="m426.992 421.636c-9.546 0-86.89 0-165.656 0-60.301 2.259-40.976 78.053-6.105 82.821h153.531c27.909 0 50.526-22.617 50.526-50.526-.001-17.839-14.457-32.295-32.296-32.295z" fill="#4f5d78"/><path d="m261.305 461.269c-2.713-9.428-3.345-19.315-1.516-28.954.668-3.519 1.179-7.082 1.547-10.679h-51.6l.174 82.821h45.321c8.252-13.16 10.189-28.884 6.074-43.188z" fill="#394963"/><path d="m406.583 240.935h-154.834c-51.968 9.035-45.291 46.1-4.333 60.234h159.167z" fill="#e28b5a"/><path d="m251.749 240.935h-146.335v60.234h142.002c-.713-20.252.787-40.601 4.333-60.234z" fill="#de7d43"/><path d="m177.496 496.79c5.218-1.942 11.105-1.143 15.588 2.16 11.001 8.105 26.751 7.338 36.894-2.805 10.209-10.209 10.866-25.918 2.828-36.867-3.289-4.48-4.137-10.354-2.191-15.56 20.89-55.9-11.93-128.241-75.879-157.19-83.08-6.324-138.165 158.017-38.011 213.739 20.948 4.574 42.056 3.49 60.771-3.477z" fill="#fbe481"/><path d="m154.735 286.528c-27.626-12.506-58.544-15.523-86.081-5.308-5.349 1.984-11.351 1.331-15.95-2.044-10.958-8.04-26.663-7.357-36.857 2.837-10.144 10.144-10.907 25.894-2.805 36.893 3.302 4.482 4.102 10.37 2.16 15.588-14.933 40.115-2.866 91.22 34.105 128.19 19.722 19.722 43.465 32.352 67.417 37.582-20.141-67.207-3.244-163.408 38.011-213.738z" fill="#fad254"/><path d="m425.646 188.473c.098-.165.201-.331.301-.497 18.737-2.144 33.34-18.091 33.34-37.392 0-20.758-16.888-37.646-37.646-37.646h-110.394c-1.945-12.264-8.448-19.621-13.858-25.707-5.948-6.692-10.647-11.978-10.647-23.233s4.699-16.541 10.647-23.233c6.438-7.243 14.451-16.256 14.451-33.236 0-4.159-3.371-7.529-7.529-7.529-4.159 0-7.529 3.37-7.529 7.529 0 11.255-4.699 16.541-10.647 23.233-6.438 7.243-14.451 16.256-14.451 33.236s8.013 25.993 14.451 33.236c4.439 4.995 8.181 9.209 9.794 15.703h-56.209c-1.945-12.264-8.448-19.621-13.858-25.707-5.948-6.692-10.647-11.978-10.647-23.233s4.699-16.541 10.647-23.233c6.438-7.243 14.451-16.256 14.451-33.236 0-4.159-3.37-7.529-7.529-7.529s-7.529 3.37-7.529 7.529c0 11.255-4.699 16.541-10.647 23.233-6.438 7.243-14.451 16.256-14.451 33.236s8.013 25.993 14.451 33.236c4.439 4.995 8.181 9.209 9.794 15.703h-43.695c-4.159 0-7.529 3.37-7.529 7.529s3.37 7.529 7.529 7.529h240.935c12.455 0 22.588 10.133 22.588 22.588s-10.133 22.588-22.588 22.588c-22.958 0-308.34 0-331.285 0-12.455 0-22.588-10.133-22.588-22.588s10.133-22.588 22.588-22.588h55.214c4.159 0 7.529-3.37 7.529-7.529s-3.37-7.529-7.529-7.529h-55.215c-20.758 0-37.646 16.888-37.646 37.646 0 19.301 14.603 35.248 33.34 37.392 7.749 12.816 11.836 27.414 11.836 42.457v37.343c-13.016.685-25.609 3.557-37.015 8.47-14.044-13.56-36.443-13.461-50.348.442-13.851 13.853-14.039 36.265-.432 50.349-18.105 42.027-8.074 99.004 33.892 140.971 41.994 41.994 98.977 51.984 140.971 33.892 7.609 7.353 18.034 10.964 28.576 9.901 1.585.351-5.556.114 113.575.184 4.159 0 7.529-3.37 7.529-7.529s-3.37-7.529-7.529-7.529h-87.958c10.069-14.098 8.611-33.363-3.402-45.806 3.003-6.955 5.229-14.306 6.675-21.957h184.572c13.656 0 24.766 11.109 24.766 24.766 0 23.708-19.289 42.997-42.997 42.997h-46.52c-4.159 0-7.529 3.37-7.529 7.529s3.37 7.529 7.529 7.529h46.52c32.012 0 58.055-26.043 58.055-58.055 0-21.959-17.865-39.824-39.824-39.824h-69.464c21.106-12.192 37.917-31.018 47.567-53.608l49.621-14.885c33.961-10.198 57.275-41.399 57.275-76.981 0-47.095-40.14-83.657-86.345-80.157zm-312.703 79.474v-19.483h286.11v45.175h-216.75c-21-14.893-45.144-23.909-69.36-25.692zm286.115-34.542h-286.115c-.18-1.74 1.526-22.043-9.647-45.175h305.399c-6.932 14.41-9.824 29.505-9.637 45.175zm15.054 9.767 12.41-2.483c16.96-3.404 32.765 9.581 32.765 26.849 0 11.82-7.522 22.262-18.726 25.987l-26.449 8.821zm-221.126 245.1c-2.179-3.006-6.204-3.96-9.486-2.303-39.242 19.787-92.238 8.026-128.869-28.609-36.633-36.631-48.398-89.625-28.608-128.869 1.663-3.299.687-7.317-2.304-9.486-10.488-7.603-11.565-22.651-2.548-31.667 9.059-9.057 24.095-7.906 31.667 2.538 2.169 2.992 6.189 3.966 9.486 2.304 12.741-6.424 27.606-9.713 43-9.505 69.928.839 131.951 69.561 123.208 138.006 0 .001 0 .002-.001.003-1.319 10.36-4.253 20.112-8.721 28.986-1.662 3.298-.685 7.314 2.305 9.482 10.437 7.568 11.609 22.596 2.538 31.667-9.079 9.081-24.108 7.88-31.667-2.547zm108.268-74.165h-57.033c2.053-38.724-15.079-77.416-43.845-105.409h198.677c0 .388 0 4.402 0 4.249v3.361c0 53.926-43.872 97.799-97.799 97.799zm149.133-82.916-39.481 11.843c1.944-7.974 3.038-16.277 3.181-24.807l31.231-10.416c17.362-5.77 29.028-21.955 29.028-40.273 0-26.812-24.527-46.868-50.779-41.616l-9.377 1.876c.24-5.818 1.133-13.986 4.112-23.119l.51-.102c40.452-8.091 78.122 22.873 78.122 64.054-.001 29.058-18.707 54.199-46.547 62.56z"/><path d="m92.316 332.335c-8.325-8.324-21.869-8.322-30.194 0-2.94 2.941-2.94 7.708 0 10.649 2.941 2.939 7.708 2.939 10.649 0 2.452-2.454 6.444-2.455 8.898-.001 2.45 2.451 2.451 6.438 0 8.888-2.94 2.941-2.94 7.708 0 10.649 2.942 2.94 7.708 2.939 10.649 0 8.32-8.322 8.32-21.862-.002-30.185z"/><path d="m149.472 419.674c-2.94 2.941-2.94 7.708 0 10.649 2.941 2.939 7.708 2.939 10.649 0 2.449-2.451 6.438-2.45 8.887-.001 2.453 2.454 2.454 6.446 0 8.899-4.758 4.76-1.323 12.854 5.324 12.854 1.926 0 3.854-.735 5.324-2.205 8.323-8.324 8.323-21.869-.001-30.195-8.321-8.322-21.862-8.32-30.183-.001z"/><path d="m119.326 405.37c-7.247.486-13.2-5.453-12.705-12.705.284-4.149-2.848-7.742-6.997-8.026-4.15-.279-7.742 2.848-8.026 6.997-1.119 16.309 12.388 29.873 28.757 28.757 4.149-.284 7.281-3.878 6.997-8.026-.284-4.149-3.899-7.281-8.026-6.997z"/></g></g></g></svg>